<svg width="32" height="32" viewBox="0 0 32 32" xmlns="http://www.w3.org/2000/svg">
  <defs>
    <linearGradient id="nodeGradient" x1="0%" y1="0%" x2="100%" y2="100%">
      <stop offset="0%" style="stop-color:#2196F3;stop-opacity:1" />
      <stop offset="100%" style="stop-color:#6366F1;stop-opacity:1" />
    </linearGradient>
  </defs>

  <!-- Background -->
  <rect width="32" height="32" fill="#1a1a1a" rx="6"/>

  <!-- Neural Network Nodes -->
  <!-- Top row -->
  <circle cx="8" cy="8" r="2.5" fill="url(#nodeGradient)" />
  <circle cx="16" cy="6" r="2.5" fill="url(#nodeGradient)" />
  <circle cx="24" cy="8" r="2.5" fill="url(#nodeGradient)" />

  <!-- Middle row -->
  <circle cx="6" cy="16" r="3" fill="url(#nodeGradient)" />
  <circle cx="16" cy="16" r="3.5" fill="url(#nodeGradient)" stroke="#fff" stroke-width="0.5" />
  <circle cx="26" cy="16" r="3" fill="url(#nodeGradient)" />

  <!-- Bottom row -->
  <circle cx="8" cy="24" r="2.5" fill="url(#nodeGradient)" />
  <circle cx="16" cy="26" r="2.5" fill="url(#nodeGradient)" />
  <circle cx="24" cy="24" r="2.5" fill="url(#nodeGradient)" />

  <!-- Connection lines -->
  <g stroke="url(#nodeGradient)" stroke-width="1" opacity="0.6" fill="none">
    <!-- From center to all nodes -->
    <line x1="16" y1="16" x2="8" y2="8" />
    <line x1="16" y1="16" x2="16" y2="6" />
    <line x1="16" y1="16" x2="24" y2="8" />
    <line x1="16" y1="16" x2="6" y2="16" />
    <line x1="16" y1="16" x2="26" y2="16" />
    <line x1="16" y1="16" x2="8" y2="24" />
    <line x1="16" y1="16" x2="16" y2="26" />
    <line x1="16" y1="16" x2="24" y2="24" />

    <!-- Cross connections -->
    <line x1="8" y1="8" x2="6" y2="16" opacity="0.3" />
    <line x1="24" y1="8" x2="26" y2="16" opacity="0.3" />
    <line x1="6" y1="16" x2="8" y2="24" opacity="0.3" />
    <line x1="26" y1="16" x2="24" y2="24" opacity="0.3" />
  </g>
</svg>